<?xml version="1.0" encoding="UTF-8"?>
<svg id="Layer_1" data-name="Layer 1" xmlns="http://www.w3.org/2000/svg" viewBox="0 0 640.76 846.92">
  <defs>
    <style>
      .cls-1 {
        fill: #fff;
      }
    </style>
  </defs>
  <path class="cls-1" d="M619.65,158.78c-14.1-33.65-34.01-62.24-59.73-85.77-25.75-23.53-56.73-41.57-92.92-54.16C430.79,6.29,390.57,0,346.34,0H0v169.32h453.67v137.78l-105.47,230.75h1.75c40.22,0,78.02-6.69,113.41-20.08,35.41-13.39,66.18-31.83,92.33-55.39,26.12-23.51,46.86-51.51,62.15-83.95,15.26-32.45,22.91-67.73,22.91-105.88,0-42.16-7.03-80.1-21.11-113.77Z"/>
  <polygon class="cls-1" points="0 846.92 .39 846.92 230.36 338.85 0 338.85 0 846.92"/>
</svg>